<svg xmlns="http://www.w3.org/2000/svg" xmlns:xlink="http://www.w3.org/1999/xlink" xmlns:lucid="lucid" width="921.33" height="786.24"><g transform="translate(-273.5333333333256 -155.93333333334886)" lucid:page-tab-id="0_0"><path d="M0 0h1870.87v1322.83H0z" fill="#fff"/><path d="M293.53 181.93a6 6 0 0 1 6-6h869.34a6 6 0 0 1 6 6v644a6 6 0 0 1-6 6H299.53a6 6 0 0 1-6-6z" stroke="#248814" fill="#fff" fill-opacity="0"/><path d="M293.53 175.93h56v56h-56v-56z" stroke="#fff" stroke-opacity="0" fill="#248814"/><path d="M325.3 204.24h-1.2v-1.1c-.1-1.74-1.46-3.08-3.18-3.2-1.9-.13-3.55 1.3-3.68 3.2v1.06h-1.18c-.44 0-.8.36-.8.8v6.13c0 .44.36.8.8.8h9.23c.44 0 .8-.36.8-.8v-6.1c0-.43-.36-.8-.8-.8zm-6.4-1.07c.1-1.02 1-1.77 2-1.67.9.08 1.58.77 1.66 1.67v1.07h-3.7zm5.64 7.08h-7.68v-4.42h7.63z" stroke="#fff" stroke-opacity="0" fill="#fff"/><path d="M335.8 201.68c-.08-2.45-1.58-4.48-3.87-5.3-1.58-.47-3.16-.14-4.4.9-.67-1.45-1.47-2.6-2.6-3.76-3.23-3.35-7.94-4.28-12.18-2.4-4.04 1.9-6.4 5.64-6.53 10.06v.72c-3.42.96-5.66 4.06-5.5 7.63v.63c.38 4.28 3.92 7.52 8.2 7.47h26s7.4-.63 7.4-8.1c.06-3.9-2.65-7.2-6.52-7.85zm-.96 14.38h-25.92c-3.45.06-6.28-2.52-6.57-5.95v-.5c-.17-3.06 1.9-5.73 4.9-6.33.38-.1.63-.47.6-.88-.05-.42-.05-.75 0-1.16.07-3.8 2.1-6.95 5.52-8.6 1.25-.57 2.42-.82 3.83-.85 2.62.08 4.87 1.04 6.7 2.93 1.25 1.3 2.04 2.6 2.62 4.3.04.15.13.3.25.37.38.27.88.2 1.13-.17.83-1.18 2.24-1.67 3.62-1.3 1.78.73 2.87 2.4 2.83 4.32-.1.42.2.83.62.9 3.58.37 6.2 3.55 5.82 7.12-.3 3.13-2.7 5.52-5.83 5.85z" stroke="#fff" stroke-opacity="0" fill="#fff"/><use xlink:href="#a" transform="matrix(1,0,0,1,364.5333333333256,195.93333333334886) translate(0 14.4)"/><use xlink:href="#b" transform="matrix(1,0,0,1,364.5333333333256,195.93333333334886) translate(55.5 14.4)"/><use xlink:href="#c" transform="matrix(1,0,0,1,364.5333333333256,195.93333333334886) translate(116.4 14.4)"/><path d="M335.2 269.93a6 6 0 0 1 6-6h364.53a6 6 0 0 1 6 6V728.6a6 6 0 0 1-6 6H341.2a6 6 0 0 1-6-6z" fill="#248814" fill-opacity=".13"/><path d="M335.2 263.93h56v56h-56v-56z" stroke="#fff" stroke-opacity="0" fill="#248814"/><path d="M378.58 286.1c-.15-.16-.34-.24-.56-.24h-5.15v-5.57c-.03-2.55-.96-4.72-2.84-6.42-1.9-1.83-4.15-2.75-6.77-2.75-2.65 0-4.9.84-6.8 2.62-1.9 1.7-2.87 3.87-2.9 6.4v5.67h-5.15c-.24 0-.43.08-.58.25-.16.16-.22.33-.22.58v25.3c0 .4.34.78.8.78H378c.46 0 .8-.37.8-.8v-25.28c0-.2-.06-.37-.22-.54zm-23.46-5.9c.03-2.12.8-3.87 2.37-5.28 1.6-1.5 3.52-2.2 5.73-2.2 2.22 0 4.12.74 5.7 2.24 1.54 1.4 2.32 3.2 2.32 5.33v5.56H355.1zm22.1 30.95h-28.03v-23.7h28z" stroke="#fff" stroke-opacity="0" fill="#fff"/><path d="M362.4 301.24v6.25h1.6v-6.24c2.13-.4 3.62-2.2 3.63-4.36 0-2.43-1.97-4.4-4.4-4.42-2.2-.03-4.06 1.5-4.44 3.67-.42 2.4 1.2 4.7 3.6 5.1zm.82-7.16c.78 0 1.44.27 2 .83.54.56.82 1.22.8 2 .03 1.55-1.2 2.8-2.74 2.83h-.06c-1.56.12-2.92-1.05-3.04-2.62-.12-1.55 1.05-2.9 2.6-3.02h.44z" stroke="#fff" stroke-opacity="0" fill="#fff"/><use xlink:href="#d" transform="matrix(1,0,0,1,406.1999999999922,283.93333333334874) translate(0 14.4)"/><use xlink:href="#e" transform="matrix(1,0,0,1,406.1999999999922,283.93333333334874) translate(53.900000000000006 14.4)"/><path d="M747.17 269.93a6 6 0 0 1 6-6h364.53a6 6 0 0 1 6 6V728.6a6 6 0 0 1-6 6H753.17a6 6 0 0 1-6-6z" fill="#248814" fill-opacity=".13"/><path d="M747.17 263.93h56v56h-56v-56z" stroke="#fff" stroke-opacity="0" fill="#248814"/><path d="M790.55 286.1c-.16-.16-.34-.24-.56-.24h-5.16v-5.57c-.03-2.55-.97-4.72-2.84-6.42-1.9-1.83-4.15-2.75-6.77-2.75-2.65 0-4.9.84-6.8 2.62-1.9 1.7-2.87 3.87-2.9 6.4v5.67h-5.15c-.25 0-.44.08-.6.25-.15.16-.2.33-.2.58v25.3c0 .4.33.78.8.78h29.58c.46 0 .8-.37.8-.8v-25.28c0-.2-.06-.37-.2-.54zm-23.46-5.9c.02-2.12.8-3.87 2.36-5.28 1.62-1.5 3.52-2.2 5.74-2.2 2.2 0 4.12.74 5.7 2.24 1.54 1.4 2.32 3.2 2.32 5.33v5.56h-16.17zm22.08 30.95h-28.02v-23.7h28.02z" stroke="#fff" stroke-opacity="0" fill="#fff"/><path d="M774.36 301.24v6.25h1.6v-6.24c2.13-.4 3.63-2.2 3.64-4.36 0-2.43-1.98-4.4-4.42-4.42-2.2-.03-4.05 1.5-4.42 3.67-.4 2.4 1.2 4.7 3.6 5.1zm.82-7.16c.8 0 1.44.27 2 .83.55.56.82 1.22.82 2 0 1.55-1.2 2.8-2.76 2.83h-.06c-1.56.12-2.92-1.05-3.03-2.62-.12-1.55 1.05-2.9 2.6-3.02h.43z" stroke="#fff" stroke-opacity="0" fill="#fff"/><use xlink:href="#d" transform="matrix(1,0,0,1,818.166404199475,283.9333333333488) translate(0 14.4)"/><use xlink:href="#e" transform="matrix(1,0,0,1,818.166404199475,283.9333333333488) translate(53.900000000000006 14.4)"/><path d="M400.87 408.6a6 6 0 0 1 6-6h654.66a6 6 0 0 1 6 6v166.67a6 6 0 0 1-6 6H406.87a6 6 0 0 1-6-6z" fill="#fff" fill-opacity="0"/><path d="M403.94 403.38l.2-.13.87-.36.93-.23h2m4 0h4m4 0h4m3.98 0h4m4 0h4m4 0h4m4 0h4m4 0h4m4 0h4m4 0h3.98m4 0h4m4 0h4m4 0h4m4 0h3.98m4 0h4m4 0h4m4 0h4m4 0h4m3.98 0h4m4 0h4m4 0h4m4 0l4-.02m3.98 0h4m4 0h4m4 0h4m4 0h4m3.98 0h4m4 0h4m4 0h4m4 0h4m3.98 0h4m4 0h4m4 0h4m4 0h4m4 0h3.98m4 0h4m4 0h4m4 0h4m4 0h3.98m4 0h4m4 0h4m4 0h4m4 0h3.98m4 0l4-.02m4 0h4m4 0h4m4 0h4m3.98 0h4m4 0h4m4 0h4m4 0h4m3.98 0h4m4 0h4m4 0h4m4 0h4m3.98 0h4m4 0h4m4 0h4m4 0h4m4 0h3.98m4 0h4m4 0h4m4 0h4m4 0h3.98m4 0h4m4 0h4m4-.02h4m4 0h3.98m4 0h4m4 0h4m4 0h4m4 0h4m3.98 0h4m4 0h4m4 0h4m4 0h4m3.98 0h4m4 0h4m4 0h4m4 0h4m3.98 0h4m4 0h4m4 0h2l.93.07.92.22.2.08m3.16 2.7l.12.2.36.87.22.9v2m0 4v4m0 3.98v4m0 3.98v4m0 4v3.98m.02 4v3.98m0 4v3.98m0 4v4m0 3.98v4m0 3.98v4m0 3.98l.02 4m0 3.98v4m0 3.98v4m0 3.98v4m0 3.98v4m0 3.98v4m0 4l.02 3.98m0 4v3.98m0 4v3.98m0 4v3.98m0 4v3.98m0 4v2l-.06.93-.22.92-.1.22m-2.68 3.15l-.2.1-.87.37-.93.22h-2m-4 0h-4m-4 0h-4m-3.98 0h-4m-4 0h-4m-4 0h-4m-4 0h-4m-4 0h-4m-4 0h-4m-4 0h-3.98m-4 0h-4m-4 0h-4m-4 0h-4m-4 0h-3.98m-4 0h-4m-4 0h-4m-4 0h-4m-4 0h-4m-3.98 0h-4m-4 0h-4m-4 0h-4m-4 0h-4m-3.98 0h-4m-4 0h-4m-4 0h-4m-4 .02h-4m-3.98 0h-4m-4 0h-4m-4 0h-4m-4 0h-4m-3.98 0h-4m-4 0h-4m-4 0h-4m-4 0h-4m-4 0h-3.98m-4 0h-4m-4 0h-4m-4 0h-4m-4 0h-3.98m-4 0h-4m-4 0h-4m-4 0h-4m-4 0h-3.98m-4 0h-4m-4 0h-4m-4 0h-4m-4 0h-4m-3.98 0l-4 .02m-4 0h-4m-4 0h-4m-4 0h-4m-3.98 0h-4m-4 0h-4m-4 0h-4m-4 0h-4m-3.98 0h-4m-4 0h-4m-4 0h-4m-4 0h-4m-4 0h-3.98m-4 0h-4m-4 0h-4m-4 0h-4m-4 0h-3.98m-4 0h-4m-4 0h-4m-4 0h-4m-4 0h-3.98m-4 0h-4m-4 0l-4 .02m-4 0h-4m-4 0h-4m-3.98 0h-4m-4 0h-4m-4 0h-4m-4 0h-4m-3.98 0h-4m-4 0h-4m-4 0h-4m-4 0h-4m-3.98 0h-4m-4 0h-4m-4 0h-2l-.93-.07-.92-.23-.2-.1m-3.16-2.68l-.12-.2-.36-.88-.22-.9v-2m0-4v-4m0-3.98v-4m0-3.98v-4m0-3.98v-4m-.02-4v-3.98m0-4v-3.98m0-4v-3.98m0-4v-3.98m0-4v-3.98m0-4l-.02-3.98m0-4v-3.98m0-4v-3.98m0-4v-4m0-3.98v-4m0-3.98v-4m0-3.98l-.02-4m0-3.98v-4m0-3.98v-4m0-3.98v-4m0-3.98v-4m0-3.98v-2l.06-.94.22-.9.1-.23" stroke="#d86613" fill="none"/><path d="M400.87 402.6h56v56h-56v-56z" stroke="#fff" stroke-opacity="0" stroke-width="2" fill="#d86613"/><path d="M419.38 429.78c.06.06.1.13.18.17.1.1.2.2.34.27l.08.06.38.2.23.1H420.74l.2.08c.35.12.72.27 1.16.4l.7.2.36.1c1.96.48 3.68.7 5.7.67 3.08.06 5.7-.44 8.52-1.62 1.2-.56 1.92-1.66 1.94-3v-10.7c0-.47-.25-.86-.67-1.07l-9.28-4.32c-.32-.15-.67-.15-.98 0l-9.32 4.33c-.42.2-.67.6-.67 1.06v10.75c0 .83.3 1.54.83 2.2.04.05.08.1.15.13zm3.8.1l-.63-.18-1.04-.36-.26-.12-.26-.1c-.08-.05-.16-.1-.25-.13l-.18-.16-.1-.1c0-.02-.03-.04-.05-.06l-.06-.07c-.3-.34-.44-.72-.44-1.17v-9.84l8.2 3.84v9.13c-1.62-.02-3-.2-4.6-.58zm13.6-.8c-2.4 1.03-4.6 1.5-7.18 1.5v-9l8.2-3.74v9.56c.04.76-.36 1.38-1.03 1.7zm-7.9-16.37l8.24 3.87-8.13 3.64-.05-.03-8.03-3.73z" stroke="#fff" stroke-opacity="0" stroke-width="2" fill="#fff"/><path d="M441.76 423.27l-.4 1.43c3.35 1 5.44 2.4 5.44 3.66 0 2.47-7.37 5.23-17.93 5.23-10.56 0-17.94-2.77-17.94-5.24 0-1.27 2.1-2.67 5.43-3.66l-.38-1.43c-4.2 1.23-6.53 3.05-6.53 5.1 0 4.35 10.02 6.7 19.42 6.7 9.4 0 19.4-2.35 19.4-6.7 0-2.05-2.32-3.86-6.5-5.1zM441.72 437.43l-3.47-1.5c-.28-.13-.56-.13-.84 0l-3.54 1.53c-.33.17-.5.46-.5.82v3.85l-3.33-1.45c-.28-.14-.56-.14-.84 0l-3.35 1.45v-3.87c0-.36-.2-.7-.54-.83l-3.5-1.5c-.24-.13-.54-.13-.82 0l-3.55 1.53c-.33.17-.5.46-.5.82v4.54c0 .38.2.7.55.85l3.47 1.5h.08c.12.04.23.07.38.07.13 0 .26 0 .36-.08l3.38-1.45v3.86c0 .37.2.68.53.84l3.47 1.5h.05c.12.06.25.08.4.08.13 0 .25-.02.38-.08l3.55-1.53c.33-.17.5-.47.53-.84v-3.82l3.3 1.46h.1c.13.05.25.08.4.1.13-.02.23-.05.33-.1l3.57-1.5c.33-.14.5-.46.5-.8v-4.6c0-.36-.2-.7-.55-.83zm-3.9-.07l2.02.88-1.9.77-1.98-.84zm-8.22 4.77l2.03.86-1.9.74-1.98-.82zm-8.22-4.77l2.03.88-1.9.75-1.97-.84zm-3 1.95l2.27.96v3.14l-2.26-.96zm3.76 4.1v-3l2.23-.92v3zm4.47.67l2.26.96v3.1l-2.25-.95zm3.73 4.1v-3l2.26-.93v2.98zm4.5-8.86l2.22.96v3.14l-2.23-.96zm3.72 4.1v-2.98l2.26-.94v3z" stroke="#fff" stroke-opacity="0" stroke-width="2" fill="#fff"/><use xlink:href="#f" transform="matrix(1,0,0,1,471.86666666665894,422.5999999999768) translate(0 14.4)"/><use xlink:href="#g" transform="matrix(1,0,0,1,471.86666666665894,422.5999999999768) translate(41.95 14.4)"/><path d="M463.47 470.7h120v61.4h-120v-61.4z" fill="#9d5025"/><path d="M463.47 465.1h120v61.4h-120v-61.4z" fill="#f58536"/><path d="M489.4 468.77h5.64v54.08h-5.65v-54.08zM499.8 468.77h5.65v54.08h-5.65v-54.08zM510.22 468.77h5.65v54.08h-5.65v-54.08zM468.55 468.77h5.66v54.08h-5.65v-54.08zM478.97 468.77h5.65v54.08h-5.65v-54.08zM520.63 468.77h5.66v54.08h-5.67v-54.08zM531.05 468.77h5.65v54.08h-5.65v-54.08zM541.47 468.77h5.65v54.08h-5.65v-54.08zM551.87 468.77h5.65v54.08h-5.65v-54.08zM562.3 468.77h5.64v54.08h-5.65v-54.08zM572.7 468.77h5.65v54.08h-5.65v-54.08z" fill="#fbbf93"/><path d="M470.03 470.23h4.2v52.62h-4.2v-52.62zM480.45 470.23h4.18v52.62h-4.18v-52.62zM490.86 470.23h4.2v52.62h-4.2v-52.62zM501.27 470.23h4.18v52.62h-4.18v-52.62zM511.68 470.23h4.2v52.62h-4.2v-52.62zM522.1 470.23h4.2v52.62h-4.2v-52.62zM532.5 470.23h4.2v52.62h-4.2v-52.62zM542.93 470.23h4.2v52.62h-4.2v-52.62zM553.35 470.23h4.18v52.62h-4.18v-52.62zM563.76 470.23h4.2v52.62h-4.2v-52.62zM574.18 470.23h4.2v52.62h-4.2v-52.62z" fill="#fff"/><use xlink:href="#h" transform="matrix(1,0,0,1,463.46666666665885,532.0999999999767) translate(60 13.866666666666669)"/><path d="M875.43 470.7h120v61.4h-120v-61.4z" fill="#9d5025"/><path d="M875.43 465.1h120v61.4h-120v-61.4z" fill="#f58536"/><path d="M901.35 468.77H907v54.08h-5.65v-54.08zM911.77 468.77h5.65v54.08h-5.65v-54.08zM922.2 468.77h5.64v54.08h-5.65v-54.08zM880.52 468.77h5.65v54.08h-5.65v-54.08zM890.94 468.77h5.65v54.08h-5.66v-54.08zM932.6 468.77h5.65v54.08h-5.65v-54.08zM943.02 468.77h5.65v54.08h-5.65v-54.08zM953.43 468.77h5.66v54.08h-5.67v-54.08zM963.84 468.77h5.65v54.08h-5.66v-54.08zM974.25 468.77h5.66v54.08h-5.65v-54.08zM984.67 468.77h5.65v54.08h-5.65v-54.08z" fill="#fbbf93"/><path d="M882 470.23h4.2v52.62H882v-52.62zM892.4 470.23h4.2v52.62h-4.2v-52.62zM902.83 470.23h4.2v52.62h-4.2v-52.62zM913.23 470.23h4.2v52.62h-4.2v-52.62zM923.65 470.23h4.2v52.62h-4.2v-52.62zM934.07 470.23h4.18v52.62h-4.18v-52.62zM944.48 470.23h4.2v52.62h-4.2v-52.62zM954.9 470.23h4.2v52.62h-4.2v-52.62zM965.3 470.23h4.2v52.62h-4.2v-52.62zM975.73 470.23h4.2v52.62h-4.2v-52.62zM986.15 470.23h4.18v52.62h-4.18v-52.62z" fill="#fff"/><use xlink:href="#h" transform="matrix(1,0,0,1,875.4330708661416,532.0999999999768) translate(60 13.866666666666669)"/><path d="M776.37 698.22c0 21.92-18.9 39.7-42.17 39.7-23.28 0-42.17-17.78-42.17-39.7 0-21.9 18.9-39.7 42.17-39.7 23.28 0 42.17 17.8 42.17 39.7z" fill="#9d5025"/><path d="M776.37 694.97c0 21.9-18.9 39.7-42.17 39.7-23.28 0-42.17-17.8-42.17-39.7 0-21.92 18.9-39.7 42.17-39.7 23.28 0 42.17 17.78 42.17 39.7z" fill="#f58536"/><path d="M746.5 662.9v14.4h-24.6v-14.4h24.6zM765.53 704.62v11.74h-12.46v-11.74h12.46zM749.77 704.62v11.74H737.3v-11.74h12.47zM730.57 704.62v11.74H718.1v-11.74h12.47zM714.8 704.62v11.74h-12.46v-11.74h12.46z" fill="#fff"/><path d="M707.45 694.46h2.24v11.5h-2.25v-11.5z" fill="#fff"/><path d="M707.45 694.46h18v2.1h-18v-2.1z" fill="#fff"/><path d="M723.22 694.46h2.24v11.5h-2.24v-11.5zM742.4 694.46h2.26v11.5h-2.25v-11.5z" fill="#fff"/><path d="M742.4 694.46h18.03v2.1H742.4v-2.1z" fill="#fff"/><path d="M758.2 694.46h2.23v11.5h-2.24v-11.5zM715.35 686.23h2.24v9.28h-2.25v-9.27zM733.07 675.2h2.24v11.2h-2.23v-11.2z" fill="#fff"/><path d="M715.35 685.35h37.24v2.1h-37.25v-2.1z" fill="#fff"/><path d="M750.34 686.23h2.25v9.28h-2.26v-9.27z" fill="#fff"/><use xlink:href="#i" transform="matrix(1,0,0,1,692.0315710837757,737.9333333333489) translate(-0.882716049382708 14.222222222222221)"/><use xlink:href="#j" transform="matrix(1,0,0,1,692.0315710837757,737.9333333333489) translate(22.74691358024692 35.55555555555556)"/><use xlink:href="#k" transform="matrix(1,0,0,1,692.0315710837757,737.9333333333489) translate(7.487654320987659 56.888888888888886)"/><path d="M691.83 702.46H529.47a6 6 0 0 1-6-6V548.48" stroke="#3a414a" fill="none"/><path d="M692.37 702.96h-.56v-1h.48z" stroke="#3a414a" stroke-width=".05" fill="#3a414a"/><path d="M523.47 533.7L528.1 548h-9.27z" stroke="#3a414a" fill="#3a414a"/><path d="M776.62 702.46h159.16a6 6 0 0 0 6-6V548.48" stroke="#3a414a" fill="none"/><path d="M776.63 702.96h-.57l.04-.27.05-.74h.48z" stroke="#3a414a" stroke-width=".05" fill="#3a414a"/><path d="M941.78 533.7l4.64 14.28h-9.27z" stroke="#3a414a" fill="#3a414a"/><path d="M731.7 871.84c-19.5 0-35.33-15.83-35.33-35.34 0-19.5 15.83-35.33 35.33-35.33s35.34 15.83 35.34 35.33-15.83 35.34-35.34 35.34zm0-67.63c-17.88 0-32.3 14.42-32.3 32.3 0 17.88 14.42 32.3 32.3 32.3 17.88 0 32.3-14.42 32.3-32.3 0-17.88-14.42-32.3-32.3-32.3z" stroke="#fff" stroke-opacity="0" fill="#693cc5"/><path d="M748.6 857.73h-5.63c-.84 0-1.5-.66-1.5-1.5v-29.16c-3.06-1.58-5.97-2.3-9.4-2.38-3.76.08-6.9.9-10.2 2.7v28.83c0 .84-.67 1.5-1.48 1.5h-5.6c-.85 0-1.52-.66-1.52-1.5v-32.8c0-.45.2-.82.52-1.12 5.38-4.4 11.35-6.45 18.27-6.28 6.56-.13 12.2 1.7 17.46 5.6.4.28.6.7.6 1.15v33.46c0 .84-.67 1.5-1.52 1.5zm-4.12-3h2.62v-31.2c-4.6-3.18-9.43-4.6-15.03-4.5-5.93-.18-11.05 1.5-15.77 5.08v30.63h2.58v-28.3c0-.57.3-1.07.8-1.32 4-2.24 7.82-3.33 12.4-3.4 4.15.1 7.7 1.03 11.37 3h.15c.55.24.88.74.88 1.37z" stroke="#fff" stroke-opacity="0" fill="#693cc5"/><g><use xlink:href="#l" transform="matrix(1,0,0,1,666.3684289162087,880.8377198023294) translate(35.40123456790124 14.222222222222221)"/><use xlink:href="#m" transform="matrix(1,0,0,1,666.3684289162087,880.8377198023294) translate(32.43827160493828 35.55555555555556)"/></g><defs><path fill="#248814" d="M137 0h-34L2-248h35l83 218 83-218h36" id="n"/><path fill="#248814" d="M24-231v-30h32v30H24zM24 0v-190h32V0H24" id="o"/><path fill="#248814" d="M114-163C36-179 61-72 57 0H25l-1-190h30c1 12-1 29 2 39 6-27 23-49 58-41v29" id="p"/><path fill="#248814" d="M59-47c-2 24 18 29 38 22v24C64 9 27 4 27-40v-127H5v-23h24l9-43h21v43h35v23H59v120" id="q"/><path fill="#248814" d="M84 4C-5 8 30-112 23-190h32v120c0 31 7 50 39 49 72-2 45-101 50-169h31l1 190h-30c-1-10 1-25-2-33-11 22-28 36-60 37" id="r"/><path fill="#248814" d="M141-36C126-15 110 5 73 4 37 3 15-17 15-53c-1-64 63-63 125-63 3-35-9-54-41-54-24 1-41 7-42 31l-33-3c5-37 33-52 76-52 45 0 72 20 72 64v82c-1 20 7 32 28 27v20c-31 9-61-2-59-35zM48-53c0 20 12 33 32 33 41-3 63-29 60-74-43 2-92-5-92 41" id="s"/><path fill="#248814" d="M24 0v-261h32V0H24" id="t"/><g id="a"><use transform="matrix(0.05,0,0,0.05,0,0)" xlink:href="#n"/><use transform="matrix(0.05,0,0,0.05,11.65,0)" xlink:href="#o"/><use transform="matrix(0.05,0,0,0.05,15.600000000000001,0)" xlink:href="#p"/><use transform="matrix(0.05,0,0,0.05,21.55,0)" xlink:href="#q"/><use transform="matrix(0.05,0,0,0.05,26.55,0)" xlink:href="#r"/><use transform="matrix(0.05,0,0,0.05,36.55,0)" xlink:href="#s"/><use transform="matrix(0.05,0,0,0.05,46.55,0)" xlink:href="#t"/></g><path fill="#248814" d="M30-248c87 1 191-15 191 75 0 78-77 80-158 76V0H30v-248zm33 125c57 0 124 11 124-50 0-59-68-47-124-48v98" id="u"/><path fill="#248814" d="M108 0H70L1-190h34L89-25l56-165h34" id="v"/><path fill="#248814" d="M100-194c63 0 86 42 84 106H49c0 40 14 67 53 68 26 1 43-12 49-29l28 8c-11 28-37 45-77 45C44 4 14-33 15-96c1-61 26-98 85-98zm52 81c6-60-76-77-97-28-3 7-6 17-6 28h103" id="w"/><g id="b"><use transform="matrix(0.05,0,0,0.05,0,0)" xlink:href="#u"/><use transform="matrix(0.05,0,0,0.05,12,0)" xlink:href="#p"/><use transform="matrix(0.05,0,0,0.05,17.95,0)" xlink:href="#o"/><use transform="matrix(0.05,0,0,0.05,21.9,0)" xlink:href="#v"/><use transform="matrix(0.05,0,0,0.05,30.899999999999995,0)" xlink:href="#s"/><use transform="matrix(0.05,0,0,0.05,40.9,0)" xlink:href="#q"/><use transform="matrix(0.05,0,0,0.05,45.9,0)" xlink:href="#w"/></g><path fill="#248814" d="M212-179c-10-28-35-45-73-45-59 0-87 40-87 99 0 60 29 101 89 101 43 0 62-24 78-52l27 14C228-24 195 4 139 4 59 4 22-46 18-125c-6-104 99-153 187-111 19 9 31 26 39 46" id="x"/><path fill="#248814" d="M100-194c62-1 85 37 85 99 1 63-27 99-86 99S16-35 15-95c0-66 28-99 85-99zM99-20c44 1 53-31 53-75 0-43-8-75-51-75s-53 32-53 75 10 74 51 75" id="y"/><path fill="#248814" d="M85-194c31 0 48 13 60 33l-1-100h32l1 261h-30c-2-10 0-23-3-31C134-8 116 4 85 4 32 4 16-35 15-94c0-66 23-100 70-100zm9 24c-40 0-46 34-46 75 0 40 6 74 45 74 42 0 51-32 51-76 0-42-9-74-50-73" id="z"/><g id="c"><use transform="matrix(0.05,0,0,0.05,0,0)" xlink:href="#x"/><use transform="matrix(0.05,0,0,0.05,12.950000000000001,0)" xlink:href="#t"/><use transform="matrix(0.05,0,0,0.05,16.900000000000002,0)" xlink:href="#y"/><use transform="matrix(0.05,0,0,0.05,26.900000000000002,0)" xlink:href="#r"/><use transform="matrix(0.05,0,0,0.05,36.900000000000006,0)" xlink:href="#z"/></g><path fill="#248814" d="M115-194c53 0 69 39 70 98 0 66-23 100-70 100C84 3 66-7 56-30L54 0H23l1-261h32v101c10-23 28-34 59-34zm-8 174c40 0 45-34 45-75 0-40-5-75-45-74-42 0-51 32-51 76 0 43 10 73 51 73" id="A"/><path fill="#248814" d="M96-169c-40 0-48 33-48 73s9 75 48 75c24 0 41-14 43-38l32 2c-6 37-31 61-74 61-59 0-76-41-82-99-10-93 101-131 147-64 4 7 5 14 7 22l-32 3c-4-21-16-35-41-35" id="B"/><g id="d"><use transform="matrix(0.05,0,0,0.05,0,0)" xlink:href="#u"/><use transform="matrix(0.05,0,0,0.05,12,0)" xlink:href="#r"/><use transform="matrix(0.05,0,0,0.05,22,0)" xlink:href="#A"/><use transform="matrix(0.05,0,0,0.05,32,0)" xlink:href="#t"/><use transform="matrix(0.05,0,0,0.05,35.95,0)" xlink:href="#o"/><use transform="matrix(0.05,0,0,0.05,39.900000000000006,0)" xlink:href="#B"/></g><path fill="#248814" d="M185-189c-5-48-123-54-124 2 14 75 158 14 163 119 3 78-121 87-175 55-17-10-28-26-33-46l33-7c5 56 141 63 141-1 0-78-155-14-162-118-5-82 145-84 179-34 5 7 8 16 11 25" id="C"/><path fill="#248814" d="M117-194c89-4 53 116 60 194h-32v-121c0-31-8-49-39-48C34-167 62-67 57 0H25l-1-190h30c1 10-1 24 2 32 11-22 29-35 61-36" id="D"/><g id="e"><use transform="matrix(0.05,0,0,0.05,0,0)" xlink:href="#C"/><use transform="matrix(0.05,0,0,0.05,12,0)" xlink:href="#r"/><use transform="matrix(0.05,0,0,0.05,22,0)" xlink:href="#A"/><use transform="matrix(0.05,0,0,0.05,32,0)" xlink:href="#D"/><use transform="matrix(0.05,0,0,0.05,42,0)" xlink:href="#w"/><use transform="matrix(0.05,0,0,0.05,52,0)" xlink:href="#q"/></g><path fill="#d86613" d="M30 0v-248h187v28H63v79h144v27H63v87h162V0H30" id="E"/><path fill="#d86613" d="M212-179c-10-28-35-45-73-45-59 0-87 40-87 99 0 60 29 101 89 101 43 0 62-24 78-52l27 14C228-24 195 4 139 4 59 4 22-46 18-125c-6-104 99-153 187-111 19 9 31 26 39 46" id="F"/><path fill="#d86613" d="M185-189c-5-48-123-54-124 2 14 75 158 14 163 119 3 78-121 87-175 55-17-10-28-26-33-46l33-7c5 56 141 63 141-1 0-78-155-14-162-118-5-82 145-84 179-34 5 7 8 16 11 25" id="G"/><g id="f"><use transform="matrix(0.05,0,0,0.05,0,0)" xlink:href="#E"/><use transform="matrix(0.05,0,0,0.05,12,0)" xlink:href="#F"/><use transform="matrix(0.05,0,0,0.05,24.950000000000003,0)" xlink:href="#G"/></g><path fill="#d86613" d="M63-220v92h138v28H63V0H30v-248h175v28H63" id="H"/><path fill="#d86613" d="M141-36C126-15 110 5 73 4 37 3 15-17 15-53c-1-64 63-63 125-63 3-35-9-54-41-54-24 1-41 7-42 31l-33-3c5-37 33-52 76-52 45 0 72 20 72 64v82c-1 20 7 32 28 27v20c-31 9-61-2-59-35zM48-53c0 20 12 33 32 33 41-3 63-29 60-74-43 2-92-5-92 41" id="I"/><path fill="#d86613" d="M114-163C36-179 61-72 57 0H25l-1-190h30c1 12-1 29 2 39 6-27 23-49 58-41v29" id="J"/><path fill="#d86613" d="M177-190C167-65 218 103 67 71c-23-6-38-20-44-43l32-5c15 47 100 32 89-28v-30C133-14 115 1 83 1 29 1 15-40 15-95c0-56 16-97 71-98 29-1 48 16 59 35 1-10 0-23 2-32h30zM94-22c36 0 50-32 50-73 0-42-14-75-50-75-39 0-46 34-46 75s6 73 46 73" id="K"/><path fill="#d86613" d="M59-47c-2 24 18 29 38 22v24C64 9 27 4 27-40v-127H5v-23h24l9-43h21v43h35v23H59v120" id="L"/><path fill="#d86613" d="M100-194c63 0 86 42 84 106H49c0 40 14 67 53 68 26 1 43-12 49-29l28 8c-11 28-37 45-77 45C44 4 14-33 15-96c1-61 26-98 85-98zm52 81c6-60-76-77-97-28-3 7-6 17-6 28h103" id="M"/><g id="g"><use transform="matrix(0.05,0,0,0.05,0,0)" xlink:href="#H"/><use transform="matrix(0.05,0,0,0.05,10.950000000000001,0)" xlink:href="#I"/><use transform="matrix(0.05,0,0,0.05,20.950000000000003,0)" xlink:href="#J"/><use transform="matrix(0.05,0,0,0.05,26.900000000000002,0)" xlink:href="#K"/><use transform="matrix(0.05,0,0,0.05,36.900000000000006,0)" xlink:href="#I"/><use transform="matrix(0.05,0,0,0.05,46.900000000000006,0)" xlink:href="#L"/><use transform="matrix(0.05,0,0,0.05,51.900000000000006,0)" xlink:href="#M"/></g><path fill="#3a414a" d="M205 0l-28-72H64L36 0H1l101-248h38L239 0h-34zm-38-99l-47-123c-12 45-31 82-46 123h93" id="N"/><path fill="#3a414a" d="M115-194c55 1 70 41 70 98S169 2 115 4C84 4 66-9 55-30l1 105H24l-1-265h31l2 30c10-21 28-34 59-34zm-8 174c40 0 45-34 45-75s-6-73-45-74c-42 0-51 32-51 76 0 43 10 73 51 73" id="O"/><path fill="#3a414a" d="M24 0v-261h32V0H24" id="P"/><path fill="#3a414a" d="M24-231v-30h32v30H24zM24 0v-190h32V0H24" id="Q"/><path fill="#3a414a" d="M96-169c-40 0-48 33-48 73s9 75 48 75c24 0 41-14 43-38l32 2c-6 37-31 61-74 61-59 0-76-41-82-99-10-93 101-131 147-64 4 7 5 14 7 22l-32 3c-4-21-16-35-41-35" id="R"/><path fill="#3a414a" d="M141-36C126-15 110 5 73 4 37 3 15-17 15-53c-1-64 63-63 125-63 3-35-9-54-41-54-24 1-41 7-42 31l-33-3c5-37 33-52 76-52 45 0 72 20 72 64v82c-1 20 7 32 28 27v20c-31 9-61-2-59-35zM48-53c0 20 12 33 32 33 41-3 63-29 60-74-43 2-92-5-92 41" id="S"/><path fill="#3a414a" d="M59-47c-2 24 18 29 38 22v24C64 9 27 4 27-40v-127H5v-23h24l9-43h21v43h35v23H59v120" id="T"/><path fill="#3a414a" d="M100-194c62-1 85 37 85 99 1 63-27 99-86 99S16-35 15-95c0-66 28-99 85-99zM99-20c44 1 53-31 53-75 0-43-8-75-51-75s-53 32-53 75 10 74 51 75" id="U"/><path fill="#3a414a" d="M117-194c89-4 53 116 60 194h-32v-121c0-31-8-49-39-48C34-167 62-67 57 0H25l-1-190h30c1 10-1 24 2 32 11-22 29-35 61-36" id="V"/><g id="i"><use transform="matrix(0.049382716049382706,0,0,0.049382716049382706,0,0)" xlink:href="#N"/><use transform="matrix(0.049382716049382706,0,0,0.049382716049382706,11.85185185185185,0)" xlink:href="#O"/><use transform="matrix(0.049382716049382706,0,0,0.049382716049382706,21.728395061728392,0)" xlink:href="#O"/><use transform="matrix(0.049382716049382706,0,0,0.049382716049382706,31.604938271604933,0)" xlink:href="#P"/><use transform="matrix(0.049382716049382706,0,0,0.049382716049382706,35.50617283950616,0)" xlink:href="#Q"/><use transform="matrix(0.049382716049382706,0,0,0.049382716049382706,39.4074074074074,0)" xlink:href="#R"/><use transform="matrix(0.049382716049382706,0,0,0.049382716049382706,48.29629629629628,0)" xlink:href="#S"/><use transform="matrix(0.049382716049382706,0,0,0.049382716049382706,58.172839506172814,0)" xlink:href="#T"/><use transform="matrix(0.049382716049382706,0,0,0.049382716049382706,63.111111111111086,0)" xlink:href="#Q"/><use transform="matrix(0.049382716049382706,0,0,0.049382716049382706,67.01234567901233,0)" xlink:href="#U"/><use transform="matrix(0.049382716049382706,0,0,0.049382716049382706,76.88888888888887,0)" xlink:href="#V"/></g><path fill="#3a414a" d="M30 0v-248h33v221h125V0H30" id="W"/><path fill="#3a414a" d="M85-194c31 0 48 13 60 33l-1-100h32l1 261h-30c-2-10 0-23-3-31C134-8 116 4 85 4 32 4 16-35 15-94c0-66 23-100 70-100zm9 24c-40 0-46 34-46 75 0 40 6 74 45 74 42 0 51-32 51-76 0-42-9-74-50-73" id="X"/><g id="j"><use transform="matrix(0.049382716049382706,0,0,0.049382716049382706,0,0)" xlink:href="#W"/><use transform="matrix(0.049382716049382706,0,0,0.049382716049382706,9.87654320987654,0)" xlink:href="#U"/><use transform="matrix(0.049382716049382706,0,0,0.049382716049382706,19.75308641975308,0)" xlink:href="#S"/><use transform="matrix(0.049382716049382706,0,0,0.049382716049382706,29.629629629629623,0)" xlink:href="#X"/></g><path fill="#3a414a" d="M160-131c35 5 61 23 61 61C221 17 115-2 30 0v-248c76 3 177-17 177 60 0 33-19 50-47 57zm-97-11c50-1 110 9 110-42 0-47-63-36-110-37v79zm0 115c55-2 124 14 124-45 0-56-70-42-124-44v89" id="Y"/><path fill="#3a414a" d="M100-194c63 0 86 42 84 106H49c0 40 14 67 53 68 26 1 43-12 49-29l28 8c-11 28-37 45-77 45C44 4 14-33 15-96c1-61 26-98 85-98zm52 81c6-60-76-77-97-28-3 7-6 17-6 28h103" id="Z"/><path fill="#3a414a" d="M114-163C36-179 61-72 57 0H25l-1-190h30c1 12-1 29 2 39 6-27 23-49 58-41v29" id="aa"/><g id="k"><use transform="matrix(0.049382716049382706,0,0,0.049382716049382706,0,0)" xlink:href="#Y"/><use transform="matrix(0.049382716049382706,0,0,0.049382716049382706,11.85185185185185,0)" xlink:href="#S"/><use transform="matrix(0.049382716049382706,0,0,0.049382716049382706,21.728395061728392,0)" xlink:href="#P"/><use transform="matrix(0.049382716049382706,0,0,0.049382716049382706,25.629629629629626,0)" xlink:href="#S"/><use transform="matrix(0.049382716049382706,0,0,0.049382716049382706,35.50617283950616,0)" xlink:href="#V"/><use transform="matrix(0.049382716049382706,0,0,0.049382716049382706,45.38271604938271,0)" xlink:href="#R"/><use transform="matrix(0.049382716049382706,0,0,0.049382716049382706,54.271604938271594,0)" xlink:href="#Z"/><use transform="matrix(0.049382716049382706,0,0,0.049382716049382706,64.14814814814814,0)" xlink:href="#aa"/></g><path fill="#3a414a" d="M33 0v-248h34V0H33" id="ab"/><g id="l"><use transform="matrix(0.049382716049382706,0,0,0.049382716049382706,0,0)" xlink:href="#ab"/><use transform="matrix(0.049382716049382706,0,0,0.049382716049382706,4.93827160493827,0)" xlink:href="#V"/><use transform="matrix(0.049382716049382706,0,0,0.049382716049382706,14.814814814814811,0)" xlink:href="#T"/><use transform="matrix(0.049382716049382706,0,0,0.049382716049382706,19.75308641975308,0)" xlink:href="#Z"/><use transform="matrix(0.049382716049382706,0,0,0.049382716049382706,29.629629629629623,0)" xlink:href="#aa"/><use transform="matrix(0.049382716049382706,0,0,0.049382716049382706,35.50617283950616,0)" xlink:href="#V"/><use transform="matrix(0.049382716049382706,0,0,0.049382716049382706,45.38271604938271,0)" xlink:href="#Z"/><use transform="matrix(0.049382716049382706,0,0,0.049382716049382706,55.259259259259245,0)" xlink:href="#T"/></g><path fill="#3a414a" d="M177-190C167-65 218 103 67 71c-23-6-38-20-44-43l32-5c15 47 100 32 89-28v-30C133-14 115 1 83 1 29 1 15-40 15-95c0-56 16-97 71-98 29-1 48 16 59 35 1-10 0-23 2-32h30zM94-22c36 0 50-32 50-73 0-42-14-75-50-75-39 0-46 34-46 75s6 73 46 73" id="ac"/><path fill="#3a414a" d="M206 0h-36l-40-164L89 0H53L-1-190h32L70-26l43-164h34l41 164 42-164h31" id="ad"/><path fill="#3a414a" d="M179-190L93 31C79 59 56 82 12 73V49c39 6 53-20 64-50L1-190h34L92-34l54-156h33" id="ae"/><g id="m"><use transform="matrix(0.049382716049382706,0,0,0.049382716049382706,0,0)" xlink:href="#ac"/><use transform="matrix(0.049382716049382706,0,0,0.049382716049382706,9.87654320987654,0)" xlink:href="#S"/><use transform="matrix(0.049382716049382706,0,0,0.049382716049382706,19.75308641975308,0)" xlink:href="#T"/><use transform="matrix(0.049382716049382706,0,0,0.049382716049382706,24.691358024691354,0)" xlink:href="#Z"/><use transform="matrix(0.049382716049382706,0,0,0.049382716049382706,34.5679012345679,0)" xlink:href="#ad"/><use transform="matrix(0.049382716049382706,0,0,0.049382716049382706,47.35802469135802,0)" xlink:href="#S"/><use transform="matrix(0.049382716049382706,0,0,0.049382716049382706,57.234567901234556,0)" xlink:href="#ae"/></g></defs></g></svg>